{"accessors":[{"bufferView":0,"componentType":5123,"count":1908,"max":[629],"min":[0],"type":"SCALAR"},{"bufferView":1,"componentType":5126,"count":630,"max":[1.5392910242080688,2.5374231338500977,1.6531422138214111],"min":[-1.7809878587722778,-2.412018060684204,-1.6531422138214111],"type":"VEC3"},{"bufferView":2,"componentType":5126,"count":630,"max":[0.9964351058006287,1.0,0.9995095133781433],"min":[-0.9971818923950195,-0.9996297359466553,-0.9997241497039795],"type":"VEC3"},{"bufferView":3,"componentType":5126,"count":630,"max":[1.0,2.670038938522339],"min":[0.0,1.0],"type":"VEC2"},{"bufferView":4,"componentType":5121,"count":276,"max":[115],"min":[0],"type":"SCALAR"},{"bufferView":5,"componentType":5126,"count":116,"max":[0.0,5.049326419830322,0.26887625455856323],"min":[0.0,4.051709175109863,-0.2926573157310486],"type":"VEC3"},{"bufferView":6,"componentType":5126,"count":116,"max":[1.0,0.0,0.0],"min":[-1.0,0.0,0.0],"type":"VEC3"},{"bufferView":7,"componentType":5126,"count":116,"max":[0.875,1.0],"min":[0.125,0.0],"type":"VEC2"},{"bufferView":8,"componentType":5121,"count":276,"max":[115],"min":[0],"type":"SCALAR"},{"bufferView":9,"componentType":5126,"count":116,"max":[0.0,5.049326419830322,0.26887625455856323],"min":[0.0,4.051709175109863,-0.2926573157310486],"type":"VEC3"},{"bufferView":10,"componentType":5126,"count":116,"max":[1.0,0.0,0.0],"min":[-1.0,0.0,0.0],"type":"VEC3"},{"bufferView":11,"componentType":5126,"count":116,"max":[0.875,1.0],"min":[0.125,0.0],"type":"VEC2"},{"bufferView":12,"componentType":5123,"count":1908,"max":[629],"min":[0],"type":"SCALAR"},{"bufferView":13,"componentType":5126,"count":630,"max":[1.5392910242080688,2.5374231338500977,1.6531422138214111],"min":[-1.7809878587722778,-2.412018060684204,-1.6531422138214111],"type":"VEC3"},{"bufferView":14,"componentType":5126,"count":630,"max":[0.9964351058006287,1.0,0.9995095133781433],"min":[-0.9971818923950195,-0.9996297359466553,-0.9997241497039795],"type":"VEC3"},{"bufferView":15,"componentType":5126,"count":630,"max":[1.0,2.670038938522339],"min":[0.0,1.0],"type":"VEC2"},{"bufferView":16,"componentType":5123,"count":1908,"max":[629],"min":[0],"type":"SCALAR"},{"bufferView":17,"componentType":5126,"count":630,"max":[1.5392910242080688,2.5374231338500977,1.6531422138214111],"min":[-1.7809878587722778,-2.412018060684204,-1.6531422138214111],"type":"VEC3"},{"bufferView":18,"componentType":5126,"count":630,"max":[0.9964351058006287,1.0,0.9995095133781433],"min":[-0.9971818923950195,-0.9996297359466553,-0.9997241497039795],"type":"VEC3"},{"bufferView":19,"componentType":5126,"count":630,"max":[1.0,2.670038938522339],"min":[0.0,1.0],"type":"VEC2"},{"bufferView":20,"componentType":5123,"count":1908,"max":[629],"min":[0],"type":"SCALAR"},{"bufferView":21,"componentType":5126,"count":630,"max":[1.5392910242080688,2.5374231338500977,1.6531422138214111],"min":[-1.7809878587722778,-2.412018060684204,-1.6531422138214111],"type":"VEC3"},{"bufferView":22,"componentType":5126,"count":630,"max":[0.9964351058006287,1.0,0.9995095133781433],"min":[-0.9971818923950195,-0.9996297359466553,-0.9997241497039795],"type":"VEC3"},{"bufferView":23,"componentType":5126,"count":630,"max":[1.0,2.670038938522339],"min":[0.0,1.0],"type":"VEC2"},{"bufferView":24,"componentType":5121,"count":480,"max":[221],"min":[0],"type":"SCALAR"},{"bufferView":25,"componentType":5126,"count":222,"max":[1.0,0.0,1.0],"min":[-1.0,-18.789623260498047,-1.0],"type":"VEC3"},{"bufferView":26,"componentType":5126,"count":222,"max":[1.0,1.0,1.0],"min":[-1.0,-1.0,-1.0],"type":"VEC3"},{"bufferView":27,"componentType":5126,"count":222,"max":[1.0,1.0],"min":[0.0,0.0],"type":"VEC2"},{"bufferView":28,"componentType":5121,"count":480,"max":[221],"min":[0],"type":"SCALAR"},{"bufferView":29,"componentType":5126,"count":222,"max":[1.0,0.0,1.0],"min":[-1.0,-18.789623260498047,-1.0],"type":"VEC3"},{"bufferView":30,"componentType":5126,"count":222,"max":[1.0,1.0,1.0],"min":[-1.0,-1.0,-1.0],"type":"VEC3"},{"bufferView":31,"componentType":5126,"count":222,"max":[1.0,1.0],"min":[0.0,0.0],"type":"VEC2"}],"asset":{"generator":"Verge3D for Blender","version":"2.0"},"bufferViews":[{"buffer":0,"byteLength":3816,"byteOffset":0,"target":34963},{"buffer":0,"byteLength":7560,"byteOffset":3816,"target":34962},{"buffer":0,"byteLength":7560,"byteOffset":11376,"target":34962},{"buffer":0,"byteLength":5040,"byteOffset":18936,"target":34962},{"buffer":0,"byteLength":276,"byteOffset":23976,"target":34963},{"buffer":0,"byteLength":1392,"byteOffset":24252,"target":34962},{"buffer":0,"byteLength":1392,"byteOffset":25644,"target":34962},{"buffer":0,"byteLength":928,"byteOffset":27036,"target":34962},{"buffer":0,"byteLength":276,"byteOffset":27964,"target":34963},{"buffer":0,"byteLength":1392,"byteOffset":28240,"target":34962},{"buffer":0,"byteLength":1392,"byteOffset":29632,"target":34962},{"buffer":0,"byteLength":928,"byteOffset":31024,"target":34962},{"buffer":0,"byteLength":3816,"byteOffset":31952,"target":34963},{"buffer":0,"byteLength":7560,"byteOffset":35768,"target":34962},{"buffer":0,"byteLength":7560,"byteOffset":43328,"target":34962},{"buffer":0,"byteLength":5040,"byteOffset":50888,"target":34962},{"buffer":0,"byteLength":3816,"byteOffset":55928,"target":34963},{"buffer":0,"byteLength":7560,"byteOffset":59744,"target":34962},{"buffer":0,"byteLength":7560,"byteOffset":67304,"target":34962},{"buffer":0,"byteLength":5040,"byteOffset":74864,"target":34962},{"buffer":0,"byteLength":3816,"byteOffset":79904,"target":34963},{"buffer":0,"byteLength":7560,"byteOffset":83720,"target":34962},{"buffer":0,"byteLength":7560,"byteOffset":91280,"target":34962},{"buffer":0,"byteLength":5040,"byteOffset":98840,"target":34962},{"buffer":0,"byteLength":480,"byteOffset":103880,"target":34963},{"buffer":0,"byteLength":2664,"byteOffset":104360,"target":34962},{"buffer":0,"byteLength":2664,"byteOffset":107024,"target":34962},{"buffer":0,"byteLength":1776,"byteOffset":109688,"target":34962},{"buffer":0,"byteLength":480,"byteOffset":111464,"target":34963},{"buffer":0,"byteLength":2664,"byteOffset":111944,"target":34962},{"buffer":0,"byteLength":2664,"byteOffset":114608,"target":34962},{"buffer":0,"byteLength":1776,"byteOffset":117272,"target":34962}],"buffers":[{"byteLength":119048,"uri":"scacchiera.bin"}],"cameras":[{"extensions":{"S8S_v3d_camera":{"controls":"ORBIT","enablePan":true,"moveSpeed":1,"orbitMaxDistance":10000,"orbitMaxPolarAngle":3.141592653589793,"orbitMinDistance":0,"orbitMinPolarAngle":0,"orbitTarget":[-0.1315583437681198,1.2417727708816528,-0.4085177183151245],"rotateSpeed":1,"viewportFitInitialAspect":1,"viewportFitType":"VERTICAL"}},"name":"__DEFAULT__","perspective":{"aspectRatio":1,"yfov":0.7853981633974483,"zfar":1000.0,"znear":0.009999999776482582},"type":"perspective"}],"extensionsUsed":["S8S_v3d_texture","S8S_v3d_materials","S8S_v3d_camera","S8S_v3d_mesh","S8S_v3d_node","S8S_v3d_scene"],"images":[{"uri":"v3d_exported_image_pawn_white_base_color.png"}],"materials":[{"extensions":{"S8S_v3d_materials":{"gtaoVisible":true,"materialIndex":0,"nodeGraph":{"edges":[{"fromNode":0,"fromOutput":0,"toInput":0,"toNode":1}],"nodes":[{"inputs":[[0.800000011920929,0.800000011920929,0.800000011920929,1.0],0.0,[1.0,0.20000000298023224,0.10000000149011612],[0.8821121454238892,0.8821121454238892,0.8821121454238892,1.0],1.399999976158142,0.0,0.0,0.10000000149011612,0.0,0.5,0.0,0.0,0.0,0.5,0.0,0.029999999329447746,1.4500000476837158,0.0,0.0,[0.8453914523124695,0.8453914523124695,0.8453914523124695,1.0],1.0,1.0,[0.0,0.0,0.0],[0.0,0.0,0.0],[0.0,0.0,0.0]],"is_active_output":false,"name":"Principled BSDF","outputs":[[0,0,0,0]],"type":"BSDF_PRINCIPLED_BL"},{"inputs":[[0,0,0,0],[0,0,0,0],[0.0,0.0,0.0],0.0],"is_active_output":true,"name":"Material Output","outputs":[],"type":"OUTPUT_MATERIAL_BL"}]},"useCastShadows":true}},"name":"bianchi"},{"extensions":{"S8S_v3d_materials":{"gtaoVisible":true,"materialIndex":0,"nodeGraph":{"edges":[{"fromNode":0,"fromOutput":0,"toInput":0,"toNode":1}],"nodes":[{"inputs":[[0.005215643439441919,0.0013134204782545567,0.0023237999994307756,1.0],0.0,[1.0,0.20000000298023224,0.10000000149011612],[0.016728302463889122,0.015230044722557068,0.013721921481192112,1.0],1.399999976158142,0.0,0.0,0.5,0.0,0.5,0.0,0.0,0.0,0.5,0.0,0.029999999329447746,1.4500000476837158,0.0,0.0,[0.0,0.0,0.0,1.0],1.0,1.0,[0.0,0.0,0.0],[0.0,0.0,0.0],[0.0,0.0,0.0]],"is_active_output":false,"name":"Principled BSDF","outputs":[[0,0,0,0]],"type":"BSDF_PRINCIPLED_BL"},{"inputs":[[0,0,0,0],[0,0,0,0],[0.0,0.0,0.0],0.0],"is_active_output":true,"name":"Material Output","outputs":[],"type":"OUTPUT_MATERIAL_BL"}]},"useCastShadows":true}},"name":"black square"},{"extensions":{"S8S_v3d_materials":{"gtaoVisible":true,"materialIndex":0,"nodeGraph":{"edges":[{"fromNode":0,"fromOutput":0,"toInput":0,"toNode":1}],"nodes":[{"inputs":[[0.00402044178918004,0.00402044178918004,0.00402044178918004,1.0],0.0,[1.0,0.20000000298023224,0.10000000149011612],[0.015957215800881386,0.015957215800881386,0.015957215800881386,1.0],1.399999976158142,0.0,0.0,0.5,0.0,0.5,0.0,0.0,0.0,0.5,0.0,0.029999999329447746,1.4500000476837158,0.0,0.0,[0.0,0.0,0.0,1.0],1.0,1.0,[0.0,0.0,0.0],[0.0,0.0,0.0],[0.0,0.0,0.0]],"is_active_output":false,"name":"Principled BSDF","outputs":[[0,0,0,0]],"type":"BSDF_PRINCIPLED_BL"},{"inputs":[[0,0,0,0],[0,0,0,0],[0.0,0.0,0.0],0.0],"is_active_output":true,"name":"Material Output","outputs":[],"type":"OUTPUT_MATERIAL_BL"}]},"useCastShadows":true}},"name":"neri"},{"extensions":{"S8S_v3d_materials":{"gtaoVisible":true,"materialIndex":0,"nodeGraph":{"edges":[{"fromNode":0,"fromOutput":0,"toInput":0,"toNode":1},{"fromNode":2,"fromOutput":0,"toInput":0,"toNode":0}],"nodes":[{"inputs":[[0.800000011920929,0.800000011920929,0.800000011920929,1.0],0.0,[1.0,0.20000000298023224,0.10000000149011612],[0.8000000715255737,0.7061342000961304,0.6134812831878662,1.0],1.399999976158142,0.0,0.0,0.5,0.0,0.5,0.0,0.0,0.0,0.5,0.0,0.029999999329447746,1.4500000476837158,0.0,0.0,[0.0,0.0,0.0,1.0],1.0,1.0,[0.0,0.0,0.0],[0.0,0.0,0.0],[0.0,0.0,0.0]],"is_active_output":false,"name":"Principled BSDF","outputs":[[0,0,0,0]],"type":"BSDF_PRINCIPLED_BL"},{"inputs":[[0,0,0,0],[0,0,0,0],[0.0,0.0,0.0],0.0],"is_active_output":true,"name":"Material Output","outputs":[],"type":"OUTPUT_MATERIAL_BL"},{"alphaMode":"STRAIGHT","inputs":[[0.0,0.0,0.0]],"is_active_output":false,"name":"Image Texture","outputs":[[0.0,0.0,0.0,0.0],0.0],"projection":"FLAT","projectionBlend":0.0,"texture":0,"type":"TEX_IMAGE_BL"}]},"useCastShadows":true}},"name":"pawn white"},{"extensions":{"S8S_v3d_materials":{"gtaoVisible":true,"materialIndex":0,"nodeGraph":{"edges":[{"fromNode":1,"fromOutput":0,"toInput":0,"toNode":0}],"nodes":[{"inputs":[[0,0,0,0],[0,0,0,0]],"is_active_output":true,"name":"World Output","outputs":[],"type":"OUTPUT_WORLD_BL"},{"inputs":[[0.05087608844041824,0.05087608844041824,0.05087608844041824,1.0],1.0],"is_active_output":false,"name":"Background","outputs":[[0,0,0,0]],"type":"BACKGROUND_BL"}]},"useCastShadows":true}},"name":"Verge3D_Environment_World"}],"meshes":[{"extensions":{"S8S_v3d_mesh":{"colorLayers":{},"uvLayers":{"UVMap":"TEXCOORD_0"}}},"name":"Cube.023","primitives":[{"attributes":{"NORMAL":2,"POSITION":1,"TEXCOORD_0":3},"indices":0,"material":3,"mode":4}]},{"extensions":{"S8S_v3d_mesh":{"colorLayers":{},"uvLayers":{"UVMap":"TEXCOORD_0"}}},"name":"Cube.028","primitives":[{"attributes":{"NORMAL":6,"POSITION":5,"TEXCOORD_0":7},"indices":4,"material":3,"mode":4}]},{"extensions":{"S8S_v3d_mesh":{"colorLayers":{},"uvLayers":{"UVMap":"TEXCOORD_0"}}},"name":"Cube.030","primitives":[{"attributes":{"NORMAL":10,"POSITION":9,"TEXCOORD_0":11},"indices":8,"material":1,"mode":4}]},{"extensions":{"S8S_v3d_mesh":{"colorLayers":{},"uvLayers":{"UVMap":"TEXCOORD_0"}}},"name":"Cube.032","primitives":[{"attributes":{"NORMAL":14,"POSITION":13,"TEXCOORD_0":15},"indices":12,"material":3,"mode":4}]},{"extensions":{"S8S_v3d_mesh":{"colorLayers":{},"uvLayers":{"UVMap":"TEXCOORD_0"}}},"name":"Cube.033","primitives":[{"attributes":{"NORMAL":18,"POSITION":17,"TEXCOORD_0":19},"indices":16,"material":1,"mode":4}]},{"extensions":{"S8S_v3d_mesh":{"colorLayers":{},"uvLayers":{"UVMap":"TEXCOORD_0"}}},"name":"Cube.036","primitives":[{"attributes":{"NORMAL":22,"POSITION":21,"TEXCOORD_0":23},"indices":20,"material":2,"mode":4}]},{"extensions":{"S8S_v3d_mesh":{"colorLayers":{},"uvLayers":{"UVMap":"TEXCOORD_0"}}},"name":"Plane.001","primitives":[{"attributes":{"NORMAL":26,"POSITION":25,"TEXCOORD_0":27},"indices":24,"material":0,"mode":4},{"attributes":{"NORMAL":30,"POSITION":29,"TEXCOORD_0":31},"indices":28,"material":2,"mode":4}]}],"nodes":[{"extensions":{"S8S_v3d_node":{"frustumCulling":true,"groupNames":["Pezzi","SCACCHIERA 1"],"hidden":false,"hidpiCompositing":false,"objectColor":[1.0,1.0,1.0,1.0],"objectIndex":0,"renderOrder":0,"useShadows":true}},"name":"Alfiere 1 nero","scale":[1.8623046875,1.148131012916565,1.8623046875],"translation":[21.659202575683594,1.2793707847595215,9.426599502563477]},{"extensions":{"S8S_v3d_node":{"frustumCulling":true,"groupNames":["Pezzi","SCACCHIERA 1"],"hidden":false,"hidpiCompositing":false,"objectColor":[1.0,1.0,1.0,1.0],"objectIndex":0,"renderOrder":0,"useShadows":true}},"mesh":4,"name":"cavallo 1 nero","rotation":[-0.0,-0.7071067690849304,0.0,0.7071067690849304],"scale":[1.1226154565811157,1.1226154565811157,1.1226154565811157],"translation":[21.66660499572754,2.745648145675659,15.594050407409668]},{"extensions":{"S8S_v3d_node":{"frustumCulling":true,"groupNames":["Pezzi","SCACCHIERA 1"],"hidden":false,"hidpiCompositing":false,"objectColor":[1.0,1.0,1.0,1.0],"objectIndex":0,"renderOrder":0,"useShadows":true}},"name":"pedone  3 bianco","scale":[1.232652187347412,0.9611427783966064,1.232652187347412],"translation":[-15.61406421661377,1.0,-9.305152893066406]},{"extensions":{"S8S_v3d_node":{"frustumCulling":true,"groupNames":["Pezzi","SCACCHIERA 1"],"hidden":false,"hidpiCompositing":false,"objectColor":[1.0,1.0,1.0,1.0],"objectIndex":0,"renderOrder":0,"useShadows":true}},"name":"pedone 1 bianco","scale":[1.232652187347412,0.9611427783966064,1.232652187347412],"translation":[-15.519037246704102,0.9999988675117493,-21.584335327148438]},{"extensions":{"S8S_v3d_node":{"frustumCulling":true,"groupNames":["Pezzi","SCACCHIERA 1"],"hidden":false,"hidpiCompositing":false,"objectColor":[1.0,1.0,1.0,1.0],"objectIndex":0,"renderOrder":0,"useShadows":true}},"name":"pedone 5 bianco","scale":[1.232652187347412,0.9611427783966064,1.232652187347412],"translation":[-15.345623016357422,1.0,3.327421188354492]},{"extensions":{"S8S_v3d_node":{"frustumCulling":true,"groupNames":["Pezzi","SCACCHIERA 1"],"hidden":false,"hidpiCompositing":false,"objectColor":[1.0,1.0,1.0,1.0],"objectIndex":0,"renderOrder":0,"useShadows":true}},"name":"pedone 6 bianco","scale":[1.232652187347412,0.9611427783966064,1.232652187347412],"translation":[-15.151555061340332,1.0,9.130412101745605]},{"extensions":{"S8S_v3d_node":{"frustumCulling":true,"groupNames":["Pezzi","SCACCHIERA 1"],"hidden":false,"hidpiCompositing":false,"objectColor":[1.0,1.0,1.0,1.0],"objectIndex":0,"renderOrder":0,"useShadows":true}},"name":"pedone 8 bianco","scale":[1.232652187347412,0.9611427783966064,1.232652187347412],"translation":[-15.353483200073242,1.0,22.26308250427246]},{"extensions":{"S8S_v3d_node":{"frustumCulling":true,"groupNames":["Pezzi","SCACCHIERA 1"],"hidden":false,"hidpiCompositing":false,"objectColor":[1.0,1.0,1.0,1.0],"objectIndex":0,"renderOrder":0,"useShadows":true}},"name":"regina 1 bianca","scale":[2.2649986743927,1.4900003671646118,2.284998655319214],"translation":[-22.718395233154297,2.071974754333496,-2.4351348876953125]},{"extensions":{"S8S_v3d_node":{"frustumCulling":true,"groupNames":["Pezzi","SCACCHIERA 1"],"hidden":false,"hidpiCompositing":false,"objectColor":[1.0,1.0,1.0,1.0],"objectIndex":0,"renderOrder":0,"useShadows":true}},"name":"regina 1 nera","scale":[2.2649986743927,1.4890822172164917,2.2876484394073486],"translation":[21.52922248840332,1.7581974267959595,-3.4482367038726807]},{"extensions":{"S8S_v3d_node":{"frustumCulling":true,"groupNames":["Pezzi","SCACCHIERA 1"],"hidden":false,"hidpiCompositing":false,"objectColor":[1.0,1.0,1.0,1.0],"objectIndex":0,"renderOrder":0,"useShadows":true}},"name":"torre 1 nera","scale":[2.095123767852783,1.307334303855896,2.2649986743927],"translation":[21.544654846191406,1.399999976158142,21.44379997253418]},{"extensions":{"S8S_v3d_node":{"frustumCulling":true,"groupNames":["Pezzi","SCACCHIERA 1"],"hidden":false,"hidpiCompositing":false,"objectColor":[1.0,1.0,1.0,1.0],"objectIndex":0,"renderOrder":0,"useShadows":true}},"mesh":0,"name":"cavallo 1 bianco","rotation":[0.0,0.7071067690849304,-0.0,0.7071067690849304],"scale":[1.1226154565811157,1.1226154565811157,1.1226154565811157],"translation":[-22.438182830810547,2.5,-15.657882690429688]},{"extensions":{"S8S_v3d_node":{"frustumCulling":true,"groupNames":["Pezzi","SCACCHIERA 1"],"hidden":false,"hidpiCompositing":false,"objectColor":[1.0,1.0,1.0,1.0],"objectIndex":0,"renderOrder":0,"useShadows":true}},"name":"pedone 2 bianco","scale":[1.232652187347412,0.9611427783966064,1.232652187347412],"translation":[-15.682779312133789,1.0,-15.93079662322998]},{"extensions":{"S8S_v3d_node":{"frustumCulling":true,"groupNames":["Pezzi","SCACCHIERA 1"],"hidden":false,"hidpiCompositing":false,"objectColor":[1.0,1.0,1.0,1.0],"objectIndex":0,"renderOrder":0,"useShadows":true}},"name":"pedone 4 nero","scale":[1.232652187347412,0.9611427783966064,1.232652187347412],"translation":[16.138896942138672,1.0,3.2795028686523438]},{"extensions":{"S8S_v3d_node":{"frustumCulling":true,"groupNames":["Pezzi","SCACCHIERA 1"],"hidden":false,"hidpiCompositing":false,"objectColor":[1.0,1.0,1.0,1.0],"objectIndex":0,"renderOrder":0,"useShadows":true}},"name":"pedone 7 nero","scale":[1.232652187347412,0.9611427783966064,1.232652187347412],"translation":[15.942387580871582,1.0,-16.035655975341797]},{"extensions":{"S8S_v3d_node":{"frustumCulling":true,"groupNames":["Pezzi","SCACCHIERA 1"],"hidden":false,"hidpiCompositing":false,"objectColor":[1.0,1.0,1.0,1.0],"objectIndex":0,"renderOrder":0,"useShadows":true}},"mesh":2,"name":"re nero","scale":[2.2649986743927,1.2934881448745728,2.2649986743927],"translation":[21.44220542907715,1.4263858795166016,3.0455543994903564]},{"extensions":{"S8S_v3d_node":{"frustumCulling":true,"groupNames":["Pezzi","SCACCHIERA 1"],"hidden":false,"hidpiCompositing":false,"objectColor":[1.0,1.0,1.0,1.0],"objectIndex":0,"renderOrder":0,"useShadows":true}},"name":"torre 1 bianca","scale":[2.095123767852783,1.307334303855896,2.2649986743927],"translation":[-21.368497848510742,1.4900000095367432,-22.278690338134766]},{"extensions":{"S8S_v3d_node":{"frustumCulling":true,"groupNames":["Pezzi","SCACCHIERA 1"],"hidden":false,"hidpiCompositing":false,"objectColor":[1.0,1.0,1.0,1.0],"objectIndex":0,"renderOrder":0,"useShadows":true}},"name":"torre 2 bianca","scale":[2.095123767852783,1.307334303855896,2.2649986743927],"translation":[-21.80132484436035,1.4900000095367432,22.525188446044922]},{"extensions":{"S8S_v3d_node":{"frustumCulling":true,"groupNames":["SCACCHIERA 1"],"hidden":false,"hidpiCompositing":false,"objectColor":[1.0,1.0,1.0,1.0],"objectIndex":0,"renderOrder":0,"useShadows":true}},"mesh":6,"name":"scacchiera","scale":[25.0,0.15966258943080902,25.0],"translation":[0.0,0.12561893463134766,-0.0]},{"extensions":{"S8S_v3d_node":{"frustumCulling":true,"groupNames":["Pezzi","SCACCHIERA 1"],"hidden":false,"hidpiCompositing":false,"objectColor":[1.0,1.0,1.0,1.0],"objectIndex":0,"renderOrder":0,"useShadows":true}},"name":"Alfiere 2 nero.001","scale":[1.8623046875,1.148131012916565,1.8623046875],"translation":[21.79624366760254,1.3310413360595703,-8.962552070617676]},{"extensions":{"S8S_v3d_node":{"frustumCulling":true,"groupNames":["Pezzi","SCACCHIERA 1"],"hidden":false,"hidpiCompositing":false,"objectColor":[1.0,1.0,1.0,1.0],"objectIndex":0,"renderOrder":0,"useShadows":true}},"mesh":5,"name":"cavallo 2 nero","rotation":[0.0,0.7071067690849304,-0.0,0.7071067690849304],"scale":[1.1226154565811157,1.1226154565811157,1.1226154565811157],"translation":[21.76228904724121,3.0951011180877686,-16.1326961517334]},{"extensions":{"S8S_v3d_node":{"frustumCulling":true,"groupNames":["Pezzi","SCACCHIERA 1"],"hidden":false,"hidpiCompositing":false,"objectColor":[1.0,1.0,1.0,1.0],"objectIndex":0,"renderOrder":0,"useShadows":true}},"name":"pedone 1 nero","scale":[1.232652187347412,0.9611427783966064,1.232652187347412],"translation":[15.311426162719727,1.0,21.5516300201416]},{"extensions":{"S8S_v3d_node":{"frustumCulling":true,"groupNames":["Pezzi","SCACCHIERA 1"],"hidden":false,"hidpiCompositing":false,"objectColor":[1.0,1.0,1.0,1.0],"objectIndex":0,"renderOrder":0,"useShadows":true}},"name":"pedone 3 nero","scale":[1.232652187347412,0.9611427783966064,1.232652187347412],"translation":[15.51968002319336,1.0,15.624678611755371]},{"extensions":{"S8S_v3d_node":{"frustumCulling":true,"groupNames":["Pezzi","SCACCHIERA 1"],"hidden":false,"hidpiCompositing":false,"objectColor":[1.0,1.0,1.0,1.0],"objectIndex":0,"renderOrder":0,"useShadows":true}},"name":"pedone 7 bianco","scale":[1.232652187347412,0.9611427783966064,1.232652187347412],"translation":[-15.58525276184082,0.8591113090515137,15.702937126159668]},{"extensions":{"S8S_v3d_node":{"frustumCulling":true,"groupNames":["Pezzi","SCACCHIERA 1"],"hidden":false,"hidpiCompositing":false,"objectColor":[1.0,1.0,1.0,1.0],"objectIndex":0,"renderOrder":0,"useShadows":true}},"mesh":1,"name":"re bianco","scale":[2.2649986743927,1.2934881448745728,2.2649986743927],"translation":[-22.07134437561035,1.4752488136291504,3.2992982864379883]},{"extensions":{"S8S_v3d_node":{"frustumCulling":true,"groupNames":["Pezzi","SCACCHIERA 1"],"hidden":false,"hidpiCompositing":false,"objectColor":[1.0,1.0,1.0,1.0],"objectIndex":0,"renderOrder":0,"useShadows":true}},"name":"torre 2 nera","scale":[2.095123767852783,1.307334303855896,2.2649986743927],"translation":[22.0133056640625,1.6064616441726685,-21.948827743530273]},{"extensions":{"S8S_v3d_node":{"frustumCulling":true,"groupNames":["Pezzi","SCACCHIERA 1"],"hidden":false,"hidpiCompositing":false,"objectColor":[1.0,1.0,1.0,1.0],"objectIndex":0,"renderOrder":0,"useShadows":true}},"name":"Alfiere 2 bianco","scale":[1.8623046875,1.148131012916565,1.8623046875],"translation":[-21.70654296875,1.2999999523162842,9.152813911437988]},{"extensions":{"S8S_v3d_node":{"frustumCulling":true,"groupNames":["Pezzi","SCACCHIERA 1"],"hidden":false,"hidpiCompositing":false,"objectColor":[1.0,1.0,1.0,1.0],"objectIndex":0,"renderOrder":0,"useShadows":true}},"name":"Alfiere 1 bianco","scale":[1.8623046875,1.148131012916565,1.8623046875],"translation":[-22.10243797302246,1.1194173097610474,-9.232162475585938]},{"extensions":{"S8S_v3d_node":{"frustumCulling":true,"groupNames":["Pezzi","SCACCHIERA 1"],"hidden":false,"hidpiCompositing":false,"objectColor":[1.0,1.0,1.0,1.0],"objectIndex":0,"renderOrder":0,"useShadows":true}},"mesh":3,"name":"cavallo 2 bianco","rotation":[-0.0,-0.7071067690849304,0.0,0.7071067690849304],"scale":[1.1226154565811157,1.1226154565811157,1.1226154565811157],"translation":[-21.712255477905273,2.725755453109741,15.383094787597656]},{"extensions":{"S8S_v3d_node":{"frustumCulling":true,"groupNames":["Pezzi","SCACCHIERA 1"],"hidden":false,"hidpiCompositing":false,"objectColor":[1.0,1.0,1.0,1.0],"objectIndex":0,"renderOrder":0,"useShadows":true}},"name":"pedone  4 bianco","scale":[1.232652187347412,0.9611427783966064,1.232652187347412],"translation":[-15.627408027648926,1.0,-3.493849515914917]},{"extensions":{"S8S_v3d_node":{"frustumCulling":true,"groupNames":["Pezzi","SCACCHIERA 1"],"hidden":false,"hidpiCompositing":false,"objectColor":[1.0,1.0,1.0,1.0],"objectIndex":0,"renderOrder":0,"useShadows":true}},"name":"pedone 2 nero","scale":[1.232652187347412,0.9611427783966064,1.232652187347412],"translation":[15.730968475341797,1.0,9.3848295211792]},{"extensions":{"S8S_v3d_node":{"frustumCulling":true,"groupNames":["Pezzi","SCACCHIERA 1"],"hidden":false,"hidpiCompositing":false,"objectColor":[1.0,1.0,1.0,1.0],"objectIndex":0,"renderOrder":0,"useShadows":true}},"name":"pedone 5 nero","scale":[1.232652187347412,0.9611427783966064,1.232652187347412],"translation":[15.90483283996582,1.0,-3.164011240005493]},{"extensions":{"S8S_v3d_node":{"frustumCulling":true,"groupNames":["Pezzi","SCACCHIERA 1"],"hidden":false,"hidpiCompositing":false,"objectColor":[1.0,1.0,1.0,1.0],"objectIndex":0,"renderOrder":0,"useShadows":true}},"name":"pedone 6 nero","scale":[1.232652187347412,0.9611427783966064,1.232652187347412],"translation":[15.868973731994629,1.0,-9.348670959472656]},{"extensions":{"S8S_v3d_node":{"frustumCulling":true,"groupNames":["Pezzi","SCACCHIERA 1"],"hidden":false,"hidpiCompositing":false,"objectColor":[1.0,1.0,1.0,1.0],"objectIndex":0,"renderOrder":0,"useShadows":true}},"name":"pedone 8 nero","scale":[1.232652187347412,0.9611427783966064,1.232652187347412],"translation":[16.428695678710938,1.0,-21.846147537231445]},{"extensions":{"S8S_v3d_node":{"frustumCulling":true,"groupNames":["Pezzi","SCACCHIERA 1"],"hidden":false,"hidpiCompositing":false,"objectColor":[1.0,1.0,1.0,1.0],"objectIndex":0,"renderOrder":0,"useShadows":true}},"name":"regina 1 bianca.001","scale":[2.2649986743927,1.4900003671646118,2.284998655319214],"translation":[-20.437692642211914,1.4900000095367432,-30.449487686157227]},{"extensions":{"S8S_v3d_node":{"frustumCulling":true,"groupNames":["Pezzi","SCACCHIERA 1"],"hidden":false,"hidpiCompositing":false,"objectColor":[1.0,1.0,1.0,1.0],"objectIndex":0,"renderOrder":0,"useShadows":true}},"name":"regina 2 nera","scale":[2.2649986743927,1.4890822172164917,2.2876484394073486],"translation":[20.64137840270996,1.4900000095367432,-30.091371536254883]},{"camera":0,"name":"__DEFAULT_CAMERA__","rotation":[-0.04035023972392082,0.861560583114624,0.06935127824544907,0.5012739896774292],"scale":[0.9999998211860657,0.9999997615814209,0.9999997615814209],"translation":[69.57902526855469,14.235257148742676,-40.036216735839844]}],"samplers":[{}],"scene":0,"scenes":[{"extensions":{"S8S_v3d_scene":{"aaMethod":"AUTO","iblEnvironmentMode":"PMREM","physicallyCorrectLights":true,"pmremMaxTileSize":512,"shadowMap":{"esmDistanceScale":1.0,"renderReverseSided":false,"renderSingleSided":true,"type":"PCFPOISSON"},"toneMapping":{"type":"filmicBlender"},"worldMaterial":4}},"extras":{"animFrameRate":24,"coordSystem":"Z_UP_RIGHT"},"name":"Scene","nodes":[17,26,0,25,18,10,1,27,19,2,28,3,20,11,29,21,12,4,30,5,31,22,13,6,32,23,14,7,33,8,34,15,9,16,24,35]}],"textures":[{"extensions":{"S8S_v3d_texture":{"colorSpace":"srgb"}},"name":"pawn white Base Color","sampler":0,"source":0}]}
